# xmcd
#
# Track frame offsets:
#	150
#	13013
#	31436
#	49599
#	65289
#	81615
#	102433
#	130793
#	144802
#	163079
#	180649
#	192554
#	205143
#	220895
#	235805
#	250516
#	266490
#	283927
#	297558
#	312128
#
# Disc length: 4412 seconds
#
# Revision: 4
# Processed by: cddbd v1.5.2PL0 Copyright (c) Steve Scherf et al.
# Submitted via: audiograbber 1.83.01
#
DISCID=2b113a14
DTITLE=John Williamson - The Platinum Collection [Disc 1]
DYEAR=2006
DGENRE=Country
TTITLE0=Old Man Emu
TTITLE1=The Breaker (with Narration By Charles 'Bud' Tingwell)
TTITLE2=True Blue
TTITLE3=Hawkesbury River Lovin'
TTITLE4=Diggers Of The Anzac (This Is Gallipoli)
TTITLE5=Wrinkles
TTITLE6=And The Band Played Waltzing Matilda (Live)
TTITLE7=Good Tobacci When I Smoke
TTITLE8=Queen In The Sport Of Kings (Live)
TTITLE9=I'll Be Gone
TTITLE10=The Shed
TTITLE11=You And My Guitar
TTITLE12=Goodbye Blinky Bill (with Bullamakanka, Ami Williamson and Georgie Willi
TTITLE12=amson)
TTITLE13=Just A Dog
TTITLE14=Billabong (Live)
TTITLE15=I Can't Feel Those Chains Any Longer (Live)
TTITLE16=The Vasectomy Song (Live)
TTITLE17=Home Among The Gum Trees (Live)
TTITLE18=Mallee Boy
TTITLE19=Galleries Of Pink Galahs
EXTD=
EXTT0=
EXTT1=
EXTT2=
EXTT3=
EXTT4=
EXTT5=
EXTT6=
EXTT7=
EXTT8=
EXTT9=
EXTT10=
EXTT11=
EXTT12=
EXTT13=
EXTT14=
EXTT15=
EXTT16=
EXTT17=
EXTT18=
EXTT19=
PLAYORDER=
